<svg xmlns="http://www.w3.org/2000/svg" version="1.1" xmlns:xlink="http://www.w3.org/1999/xlink" xmlns:svgjs="http://svgjs.com/svgjs" width="512" height="512" x="0" y="0" viewBox="0 0 24 24" style="enable-background:new 0 0 512 512" xml:space="preserve" class=""><g><g fill-rule="evenodd" clip-rule="evenodd"><path fill="#06b6d4" d="M19.084 12a4.083 4.083 0 1 0-8.167 0 4.083 4.083 0 0 0 8.167 0zM15 9.417a2.583 2.583 0 1 1 0 5.166 2.583 2.583 0 0 1 0-5.166z" data-original="#9545ed" class=""></path><g fill="#3747d6"><path d="M4.25 5.333A4.083 4.083 0 0 1 8.333 1.25h4.084v8.167H8.333A4.083 4.083 0 0 1 4.25 5.333zM8.333 2.75a2.583 2.583 0 0 0 0 5.167h2.584V2.75z" fill="#0891b2" data-original="#3747d6" class=""></path><path d="M19.084 5.333A4.083 4.083 0 0 0 15 1.25h-4.083v8.167H15a4.083 4.083 0 0 0 4.083-4.084zM15 2.75a2.583 2.583 0 0 1 0 5.167h-2.583V2.75z" fill="#0891b2" data-original="#3747d6" class=""></path><path d="M4.25 12a4.083 4.083 0 0 1 4.083-4.083h4.084v8.166H8.333A4.083 4.083 0 0 1 4.25 12zm4.083-2.583a2.583 2.583 0 1 0 0 5.166h2.584V9.417z" fill="#0891b2" data-original="#3747d6" class=""></path><path d="M4.25 18.667a4.083 4.083 0 0 1 4.083-4.084h4.084v4.084a4.083 4.083 0 1 1-8.167 0zm4.083-2.584a2.583 2.583 0 1 0 2.584 2.584v-2.584z" fill="#0891b2" data-original="#3747d6" class=""></path></g></g></g></svg>