<svg xmlns="http://www.w3.org/2000/svg" version="1.1" xmlns:xlink="http://www.w3.org/1999/xlink" xmlns:svgjs="http://svgjs.com/svgjs" width="512" height="512" x="0" y="0" viewBox="0 0 26 26" style="enable-background:new 0 0 512 512" xml:space="preserve" class=""><g><linearGradient id="a" x1="12.639" x2="12.639" y1="1.354" y2="24.645" gradientUnits="userSpaceOnUse"><stop stop-opacity="1" stop-color="#3747d6" offset="0"></stop><stop stop-opacity="1" stop-color="#8b5cf6" offset="1"></stop></linearGradient><g fill="url(#a)" fill-rule="evenodd" clip-rule="evenodd"><path d="M4.604 5.777a4.424 4.424 0 0 1 4.424-4.423h4.424V10.2H9.028a4.424 4.424 0 0 1-4.424-4.424zM9.028 2.98a2.799 2.799 0 0 0 0 5.597h2.799V2.979z" fill=""></path><path d="M20.674 5.777a4.424 4.424 0 0 0-4.424-4.423h-4.423V10.2h4.423a4.424 4.424 0 0 0 4.424-4.424zM16.25 2.98a2.799 2.799 0 1 1 0 5.597h-2.798V2.979z" fill=""></path><path d="M20.674 13a4.423 4.423 0 1 0-8.847 0 4.423 4.423 0 0 0 8.847 0zm-4.424-2.8a2.798 2.798 0 1 1 0 5.598 2.798 2.798 0 0 1 0-5.597z" fill=""></path><path d="M4.604 13a4.423 4.423 0 0 1 4.424-4.424h4.424v8.847H9.028a4.424 4.424 0 0 1-4.424-4.424zm4.424-2.8a2.798 2.798 0 1 0 0 5.598h2.799V10.2z" fill=""></path><path d="M4.604 20.222a4.424 4.424 0 0 1 4.424-4.424h4.424v4.424a4.424 4.424 0 0 1-8.848 0zm4.424-2.8a2.799 2.799 0 1 0 2.799 2.8v-2.799z" fill=""></path></g></g></svg>