<svg xmlns="http://www.w3.org/2000/svg" version="1.1" xmlns:xlink="http://www.w3.org/1999/xlink" xmlns:svgjs="http://svgjs.com/svgjs" width="512" height="512" x="0" y="0" viewBox="0 0 32 32" style="enable-background:new 0 0 512 512" xml:space="preserve"><g><g data-name="Layer 3"><path d="M12.71 16.71a1 1 0 0 0 0-1.42L11.41 14l1.3-1.29a1 1 0 0 0-1.42-1.42l-2 2a1 1 0 0 0 0 1.42l2 2a1 1 0 0 0 1.42 0zM14.68 18a1.25 1.25 0 0 0 .32 0 1 1 0 0 0 .95-.68l2-6a1 1 0 1 0-1.9-.64l-2 6a1 1 0 0 0 .63 1.32zM19.29 16.71a1 1 0 0 0 1.42 0l2-2a1 1 0 0 0 0-1.42l-2-2a1 1 0 0 0-1.42 1.42l1.3 1.29-1.3 1.29a1 1 0 0 0 0 1.42z" fill="#06b6d4" data-original="#000000"></path><path d="M28 20V7a2 2 0 0 0-2-2H6a2 2 0 0 0-2 2v13a2 2 0 0 0-2 2 5 5 0 0 0 5 5h18a5 5 0 0 0 5-5 2 2 0 0 0-2-2zM6 7h20v13h-6a1 1 0 0 0-.89.55L18.38 22h-4.76l-.73-1.45A1 1 0 0 0 12 20H6zm19 18H7a3 3 0 0 1-3-3h7.38l.73 1.45A1 1 0 0 0 13 24h6a1 1 0 0 0 .89-.55l.73-1.45H28a3 3 0 0 1-3 3z" fill="#06b6d4" data-original="#000000"></path></g></g></svg>